<?xml version="1.0" encoding="utf-8"?>
<svg width="508px" height="125px" viewBox="0 0 508 125" version="1.1" xmlns:xlink="http://www.w3.org/1999/xlink" xmlns="http://www.w3.org/2000/svg">
  <g id="vuejs-icon" transform="translate(380 7.546875)">
    <path d="M78.6667 0L64 25.6667L49.3333 0L0 0L64 111L128 0L78.6667 0Z" id="path4" fill="#42B883" fill-rule="evenodd" stroke="none" />
    <path d="M53 0L38.3333 25.6667L23.6667 0L0 0L38.3333 66.6667L76.6667 0L53 0Z" transform="translate(25.666687 0)" id="path6" fill="#35495E" fill-rule="evenodd" stroke="none" />
  </g>
  <g id="ANIMATE" fill="#35495E">
    <path d="M53.1563 117.52L43.4531 117.52L39.5859 93.0508L17.7188 93.0508L13.8516 117.52L4.42969 117.52L4.42969 117.238L24.0469 7.19922L33.6797 7.19922L53.1563 117.52ZM264.656 117.52L274.359 117.52L254.883 7.19922L245.25 7.19922L225.633 117.238L225.633 117.52L235.055 117.52L238.922 93.0508L260.789 93.0508L264.656 117.52ZM111.727 117.52L104.977 117.52L75.5859 36.5898L75.5859 117.52L66.375 117.52L66.375 7.48047L73.6875 7.48047L102.516 87.0039L102.516 7.48047L111.727 7.48047L111.727 117.52ZM129.867 117.52L139.641 117.52L139.641 7.48047L129.867 7.48047L129.867 117.52ZM212.414 117.52L203.203 117.52L203.203 47.8398Q203.203 46.3633 204.188 39.1914L186.188 107.184L184.219 107.184L166.219 39.1914Q167.203 46.4336 167.203 47.8398L167.203 117.52L157.992 117.52L157.992 7.48047L167.063 7.48047L184.922 79.0586Q185.063 79.6211 185.203 82.2227Q185.203 81.168 185.484 79.0586L203.344 7.48047L212.414 7.48047L212.414 117.52ZM325.477 16.1289L308.461 16.1289L308.461 117.52L298.688 117.52L298.688 16.1289L281.531 16.1289L281.531 7.48047L325.477 7.48047L325.477 16.1289ZM336.938 117.52L373.078 117.52L373.078 108.871L346.711 108.871L346.711 65.9805L370.336 65.9805L370.336 57.1914L346.711 57.1914L346.711 16.1289L372.656 16.1289L372.656 7.48047L336.938 7.48047L336.938 117.52ZM38.3203 84.4023L28.6875 24.7773L18.9844 84.4023L38.3203 84.4023ZM249.891 24.7773L259.523 84.4023L240.188 84.4023L249.891 24.7773Z" />
  </g>
  <path d="M0 0L59 0L59 10L0 10L0 0Z" transform="translate(341 57)" id="Rectangle" fill="#35495E" fill-rule="evenodd" stroke="none" />
  <path d="M0 0L37 0L37 10L0 10L0 0Z" transform="translate(337 7.5)" id="Rectangle-Copy-5" fill="#35495E" fill-rule="evenodd" stroke="none" />
  <path d="M0 0L72 0L72 10L0 10L0 0Z" transform="translate(337 108)" id="Rectangle-Copy-4" fill="#35495E" fill-rule="evenodd" stroke="none" />
  <path d="M0 0L10 0L10 10L0 10L0 0Z" transform="translate(419 108)" id="Rectangle-Copy-2" fill="#35495E" fill-rule="evenodd" stroke="none" />
</svg>