<?xml version="1.0" encoding="utf-8"?>
<svg width="618px" height="163px" viewBox="0 0 618 163" version="1.1" xmlns:xlink="http://www.w3.org/1999/xlink" xmlns="http://www.w3.org/2000/svg">
  <defs>
    <filter filterUnits="userSpaceOnUse" color-interpolation-filters="sRGB" id="filter_1">
      <feFlood flood-opacity="0" result="BackgroundImageFix" />
      <feColorMatrix in="SourceAlpha" type="matrix" values="0 0 0 0 0 0 0 0 0 0 0 0 0 0 0 0 0 0 127 0" />
      <feOffset dx="0" dy="2" />
      <feGaussianBlur stdDeviation="2" />
      <feColorMatrix type="matrix" values="0 0 0 0 0.39215687 0 0 0 0 0.39215687 0 0 0 0 0.39215687 0 0 0 0.49803922 0" />
      <feBlend mode="normal" in2="BackgroundImageFix" result="effect0_dropShadow" />
      <feBlend mode="normal" in="SourceGraphic" in2="effect0_dropShadow" result="shape" />
    </filter>
  </defs>
  <g id="vuejs-icon" transform="translate(478 19.031311)">
    <path d="M86.0417 0L70 28.0729L53.9583 0L0 0L70 121.406L140 0L86.0417 0Z" id="path4" fill="#42B883" fill-rule="evenodd" stroke="none" />
    <path d="M57.9687 0L41.9271 28.0729L25.8854 0L0 0L41.9271 72.9167L83.8542 0L57.9687 0Z" transform="translate(28.072998 0)" id="path6" fill="#35495E" fill-rule="evenodd" stroke="none" />
  </g>
  <g id="Animate" fill="#35495E" filter="url(#filter_1)" transform="translate(6 13.000122)">
    <path d="M59.9141 103.92L53.9961 85.8145L22.0625 85.8145L15.7344 103.92L2.60938 103.92L37.4727 16.9082L40.5781 16.9082L72.9219 103.92L59.9141 103.92ZM163.01 19.457Q160.988 17.4355 158.117 17.4355Q155.246 17.4355 153.254 19.4277Q151.262 21.4199 151.262 24.291Q151.262 27.1621 153.283 29.1836Q155.305 31.2051 158.117 31.2051Q160.988 31.2051 163.01 29.1836Q165.031 27.1621 165.031 24.291Q165.031 21.4785 163.01 19.457ZM347.492 49.9551L340.227 49.9551L340.227 41.166L347.492 41.166L347.492 28.041L358.625 23.7637L358.625 41.166L375.852 41.166L375.852 49.9551L358.625 49.9551L358.625 81.127Q358.625 89.0371 361.291 92.377Q363.957 95.7168 369.875 95.7168Q374.152 95.7168 378.723 93.5488L380.363 103.334Q373.449 105.092 365.188 105.092Q357.746 105.092 352.619 99.5547Q347.492 94.0176 347.492 85.5801L347.492 49.9551ZM38.4688 39.4082L25.168 77.2012L50.6563 77.2012L38.4688 39.4082ZM119.68 103.92L119.68 67.416Q119.68 57.3965 116.662 53.3828Q113.645 49.3691 106.555 49.3691Q102.746 49.3691 98.5859 51.6543Q94.4258 53.9395 92.1992 57.2793L92.1992 103.92L81.0664 103.92L81.0664 41.166L88.6836 41.166L92.1992 49.252Q97.707 39.9941 110.188 39.9941Q130.813 39.9941 130.813 65.0723L130.813 103.92L119.68 103.92ZM253.508 103.92L253.508 64.1934Q253.508 49.3691 240.676 49.3691Q236.633 49.3691 233.117 51.8594Q229.602 54.3496 228.313 57.5137L228.313 103.92L217.18 103.92L217.18 59.3301Q217.18 54.7012 213.693 52.0352Q210.207 49.3691 204.465 49.3691Q201.125 49.3691 197.346 51.9473Q193.566 54.5254 191.984 57.6309L191.984 103.92L180.852 103.92L180.852 41.166L188.117 41.166L191.809 48.4316Q198.254 39.9941 207.922 39.9941Q221.398 39.9941 226.789 48.373Q228.664 44.7988 233.762 42.3965Q238.859 39.9941 244.25 39.9941Q253.977 39.9941 259.309 45.7656Q264.641 51.5371 264.641 61.9668L264.641 103.92L253.508 103.92ZM295.461 105.092Q309.23 105.092 315.91 96.7129Q317.375 101.166 320.744 103.1Q324.113 105.033 330.91 105.033L330.91 99.4668Q325.988 96.7129 325.988 88.4512L325.988 65.9512Q325.988 52.416 319.807 46.2051Q313.625 39.9941 299.973 39.9941Q294.875 39.9941 289.279 41.8398Q283.684 43.6855 280.52 46.2637L285.207 55.5801Q290.832 49.9551 301.262 49.9551Q314.855 49.9551 314.855 65.1895Q310.402 63.666 306.887 63.666Q293.938 63.666 285.588 70.2578Q277.238 76.8496 277.238 86.4004Q277.238 94.3691 282.658 99.7305Q288.078 105.092 295.461 105.092ZM398.703 73.627L443.938 73.627Q444.816 70.5215 444.816 66.8301Q444.816 54.8184 437.434 47.5527Q429.816 39.9941 416.398 39.9941Q404.855 39.9941 396.418 48.373Q386.984 57.7481 386.984 73.2754Q386.984 88.2168 396.184 97.0645Q404.445 105.092 416.281 105.092Q424.484 105.092 431.164 102.631Q436.496 100.756 439.074 98.1777L434.387 90.1504Q428 95.7168 418.449 95.7168Q410.07 95.7168 404.738 90.5605Q398.703 84.6426 398.703 73.627ZM152.023 50.541L152.023 103.92L163.156 103.92L163.156 41.166L143.41 41.166L143.41 50.541L152.023 50.541ZM404.445 54.1738Q409.484 49.3691 416.926 49.3691Q424.895 49.3691 429.523 54.291Q433.742 58.8027 433.742 65.541L398.996 65.541Q399.641 58.7441 404.445 54.1738ZM307.473 71.9277Q309.582 71.9277 314.855 73.0996L314.855 88.2754Q308.352 96.3027 299.914 96.3027Q288.371 96.3027 288.371 86.5176Q288.371 80.5996 293.703 76.2637Q299.035 71.9277 307.473 71.9277Z" />
  </g>
  <g id="4" fill="#35495E" filter="url(#filter_1)" transform="translate(457 4)">
    <path d="M68.1885 109.744L57.1484 109.744L57.1484 147.595L44.9951 147.595L44.9951 109.744L3.98926 109.744L3.98926 103.157L39.1504 2.40479L51.3037 2.40479Q51.3037 2.96143 51.3037 2.96143L17.9053 98.7964L44.9951 98.7964L44.9951 46.1011L57.1484 46.1011L57.1484 98.7964L68.1885 98.7964L68.1885 109.744Z" />
  </g>
</svg>