<?xml version="1.0" encoding="utf-8"?>
<svg width="430px" height="128px" viewBox="0 0 430 128" version="1.1" xmlns:xlink="http://www.w3.org/1999/xlink" xmlns="http://www.w3.org/2000/svg">
  <defs>
    <path d="M0 0L59 0L59 125L0 125L0 0Z" transform="matrix(1 7.5261175E-09 -7.5261175E-09 1 0 -7.6293945E-06)" id="path_1" />
    <clipPath id="mask_1">
      <use xlink:href="#path_1" />
    </clipPath>
  </defs>
  <g id="vuejs-icon" transform="matrix(0.99999994 7.395045E-09 -7.395045E-09 0.99999994 0 0)">
    <path d="M0 0L59 0L59 125L0 125L0 0Z" transform="matrix(1 7.5261175E-09 -7.5261175E-09 1 0 -7.6293945E-06)" id="Background" fill="none" fill-rule="evenodd" stroke="none" />
    <g clip-path="url(#mask_1)">
      <path d="M42 7.64655e-05L34.5937 22.2604L26 43.7603L13 0.000240667L0 0.000115239L26 108.398L53.5 0L42 0.000168018L42 7.64655e-05Z" transform="matrix(1 7.5261175E-09 -7.5261175E-09 1 6.5000305 10.744743)" id="path4" fill="#42B883" fill-rule="evenodd" stroke="none" />
      <path d="M30.4349 2.66856e-05C30.4349 2.66856e-05 26.1088 15.1261 23.5001 24.2474C20.8913 33.3688 20 36.4853 20 36.4853L9.43491 2.6999e-05L0 0L20 65.1041L40 0L30.4349 2.66856e-05Z" transform="matrix(1 7.5261175E-09 -7.5261175E-09 1 13.0651245 10.74382)" id="path6" fill="#35495E" fill-rule="evenodd" stroke="none" />
    </g>
  </g>
  <g id="ANIMATE" fill="#35495E" transform="translate(50 5.0006104)">
    <path d="M53.1563 116.02L43.4531 116.02L39.5859 91.5508L17.7188 91.5508L13.8516 116.02L4.42969 116.02L4.42969 115.738L24.0469 5.69922L33.6797 5.69922L53.1563 116.02ZM264.656 116.02L274.359 116.02L254.883 5.69922L245.25 5.69922L225.633 115.738L225.633 116.02L235.055 116.02L238.922 91.5508L260.789 91.5508L264.656 116.02ZM111.727 116.02L104.977 116.02L75.5859 35.0898L75.5859 116.02L66.375 116.02L66.375 5.98047L73.6875 5.98047L102.516 85.5039L102.516 5.98047L111.727 5.98047L111.727 116.02ZM129.867 116.02L139.641 116.02L139.641 5.98047L129.867 5.98047L129.867 116.02ZM212.414 116.02L203.203 116.02L203.203 46.3398Q203.203 44.8633 204.188 37.6914L186.188 105.684L184.219 105.684L166.219 37.6914Q167.203 44.9336 167.203 46.3398L167.203 116.02L157.992 116.02L157.992 5.98047L167.063 5.98047L184.922 77.5586Q185.063 78.1211 185.203 80.7227Q185.203 79.668 185.484 77.5586L203.344 5.98047L212.414 5.98047L212.414 116.02ZM325.477 14.6289L308.461 14.6289L308.461 116.02L298.688 116.02L298.688 14.6289L281.531 14.6289L281.531 5.98047L325.477 5.98047L325.477 14.6289ZM336.938 116.02L373.078 116.02L373.078 107.371L346.711 107.371L346.711 64.4805L370.336 64.4805L370.336 55.6914L346.711 55.6914L346.711 14.6289L372.656 14.6289L372.656 5.98047L336.938 5.98047L336.938 116.02ZM38.3203 82.9023L28.6875 23.2773L18.9844 82.9023L38.3203 82.9023ZM249.891 23.2773L259.523 82.9023L240.188 82.9023L249.891 23.2773Z" />
  </g>
  <path d="M0 3C0 1.34315 1.34315 0 3 0C4.65685 0 6 1.34315 6 3C6 4.65685 4.65685 6 3 6C1.34315 6 0 4.65685 0 3Z" transform="translate(41 115.00061)" id="Ellipse" fill="#35495E" fill-rule="evenodd" stroke="none" />
</svg>